Coordinates
version=1
nRows=24
nColumns=24
inDegrees=yes

Units are S.I. units (second, meters, Newtons, ...)
Angles are in degrees.

endheader
time	pelvis_tilt	pelvis_list	pelvis_rotation	pelvis_tx	pelvis_ty	pelvis_tz	hip_flexion_r	hip_adduction_r	hip_rotation_r	knee_angle_r	ankle_angle_r	subtalar_angle_r	mtp_angle_r	hip_flexion_l	hip_adduction_l	hip_rotation_l	knee_angle_l	ankle_angle_l	subtalar_angle_l	mtp_angle_l	lumbar_extension	lumbar_bending	lumbar_rotation
      1.28333333	     -0.42408729	      2.66665248	     -1.45240357	      0.20589621	      1.03648535	      0.29675812	     16.69606229	     -4.81342031	     -6.21887847	    -65.04856102	     -4.00036772	     -1.70287551	      9.04055367	      5.61358261	      6.53712630	      3.70250098	     -4.92981179	      1.11326316	     -9.46099619	      0.28049818	     -5.32334070	     -4.28116094	      1.70594031
      1.28750000	     -0.46240183	      2.46143699	     -1.48940407	      0.21087729	      1.03717740	      0.29649833	     17.22431433	     -4.60801799	     -6.19303101	    -64.60610717	     -3.47041595	     -2.33710531	      8.90166819	      5.21870821	      6.33968770	      3.77538012	     -4.68925604	      1.19864211	     -9.52465646	      0.24446171	     -5.30253414	     -3.99222626	      1.60026989
      1.29166667	     -0.47282555	      2.24175543	     -1.52782402	      0.21585994	      1.03790668	      0.29625375	     17.69476660	     -4.38202222	     -6.17171996	    -64.07733139	     -2.95676274	     -2.97518734	      8.75193965	      4.78847229	      6.12654781	      3.85588996	     -4.43852933	      1.27353840	     -9.60411046	      0.20411100	     -5.31574029	     -3.68029901	      1.50275637
      1.29583333	     -0.51264866	      2.04220326	     -1.56246458	      0.22084270	      1.03855120	      0.29600830	     18.18379265	     -4.17693171	     -6.15242763	    -63.50291201	     -2.36796432	     -3.55706423	      6.33206623	      4.38235014	      5.93871550	      3.99560557	     -4.16864566	      1.28025692	     -9.82289564	     -0.47537355	     -5.27974803	     -3.41165282	      1.47324168
      1.30000000	     -0.53320501	      1.80756819	     -1.59782366	      0.22581097	      1.03920977	      0.29576919	     18.62077846	     -3.92562143	     -6.13186069	    -62.82985571	     -1.88406739	     -4.15295604	      6.31122161	      3.97917262	      5.70749392	      4.03449509	     -3.95240499	      1.40893287	     -9.82363354	     -0.48003591	     -5.29306609	     -3.08743696	      1.34612019
      1.30416667	     -0.55535657	      1.58200364	     -1.62315733	      0.23076429	      1.03983296	      0.29551174	     19.03950702	     -3.68989960	     -6.12845142	    -62.09607290	     -1.39231847	     -4.73710480	      6.28323317	      3.58542116	      5.48826327	      4.06846600	     -3.74578159	      1.50183828	     -9.87010428	     -0.48766702	     -5.29431720	     -2.75738387	      1.26107766
      1.30833333	     -0.56725120	      1.35252919	     -1.65713566	      0.23572501	      1.04043637	      0.29530257	     19.42405528	     -3.43411633	     -6.10336337	    -61.28588869	     -0.99963032	     -5.37563745	      6.21061973	      3.15689441	      5.26363331	      4.16956315	     -3.49036508	      1.58193867	     -9.96346921	     -0.50658090	     -5.29843607	     -2.45433975	      1.14121061
      1.31250000	     -0.57778423	      1.12358019	     -1.68146885	      0.24066113	      1.04100963	      0.29507596	     19.78589339	     -3.18327957	     -6.08796334	    -60.41622358	     -0.58374906	     -5.92960187	      6.12023416	      2.74172137	      5.04071888	      4.25657103	     -3.26090536	      1.65470845	    -10.06596674	     -0.53107371	     -5.31509140	     -2.14258821	      1.04787447
      1.31666667	     -0.57391874	      0.89362039	     -1.70053192	      0.24557512	      1.04157721	      0.29486375	     20.10850193	     -2.92597221	     -6.07054688	    -59.47931548	     -0.18274925	     -6.48597326	      5.96749899	      2.31752829	      4.81694218	      4.34892697	     -3.04212062	      1.70482692	    -10.20580042	     -0.57300990	     -5.36504284	     -1.83855216	      0.94125561
      1.32083333	     -0.62195650	      0.65327003	     -1.70671463	      0.25048914	      1.04203196	      0.29462533	     20.46355780	     -2.66122010	     -6.06633768	    -58.48079154	      0.20988731	     -6.91295318	      5.88682532	      1.96825787	      4.58060693	      4.41285763	     -2.86212393	      1.80791624	    -10.27060219	     -0.59343151	     -5.33019734	     -1.50326994	      0.88934111
      1.32500000	     -0.61556032	      0.44452002	     -1.72735690	      0.25537542	      1.04250567	      0.29444307	     20.74750363	     -2.41754696	     -6.03131986	    -57.43190818	      0.52939932	     -7.46377662	      5.68445366	      1.53879797	      4.37845160	      4.52477966	     -2.62899639	      1.85996091	    -10.42326856	     -0.64540223	     -5.38606917	     -1.22638455	      0.76873726
      1.32916667	     -0.65939519	      0.21004985	     -1.72104374	      0.26026553	      1.04288548	      0.29420197	     21.05458051	     -2.15934146	     -6.03077811	    -56.31445666	      0.85517393	     -7.82749399	      5.58068377	      1.19482938	      4.14841916	      4.59585433	     -2.46320554	      1.96936210	    -10.49408465	     -0.67016630	     -5.35356924	     -0.89604548	      0.71683995
      1.33333333	     -0.63168673	      0.00855065	     -1.73081107	      0.26514183	      1.04331934	      0.29403615	     21.26882435	     -1.92215660	     -5.99841713	    -55.14387400	      1.09024892	     -8.31968589	      5.37200912	      0.74513688	      3.95265023	      4.70749361	     -2.23167941	      2.03920921	    -10.62375630	     -0.72049379	     -5.42348849	     -0.63568611	      0.60346851
      1.33750000	     -0.65084338	     -0.20388749	     -1.72597847	      0.26998884	      1.04364236	      0.29384936	     21.51198382	     -1.67481671	     -5.97814630	    -53.91707252	      1.32612342	     -8.74091806	      5.11544657	      0.37031208	      3.74452739	      4.81118024	     -2.04632326	      2.11142052	    -10.76405337	     -0.78168104	     -5.45498348	     -0.34991139	      0.50614341
      1.34166667	     -0.65201269	     -0.40298315	     -1.71187107	      0.27486380	      1.04395469	      0.29364501	     21.71078010	     -1.45399274	     -5.98040658	    -52.63490021	      1.51104771	     -9.08850925	      4.91757040	     -0.02546320	      3.55095333	      4.89416186	     -1.85916451	      2.22135648	    -10.85325348	     -0.82634216	     -5.46150559	     -0.07798536	      0.43367621
      1.34583333	     -0.66229184	     -0.58742140	     -1.69770053	      0.27970711	      1.04419735	      0.29347233	     21.90386001	     -1.23916581	     -5.96462201	    -51.30536979	      1.65510683	     -9.47792617	      4.68747353	     -0.40421989	      3.37072354	      4.98288304	     -1.68053901	      2.31382223	    -10.95929759	     -0.87807574	     -5.49199904	      0.17061171	      0.34212441
      1.35000000	     -0.69300510	     -0.76621446	     -1.64822691	      0.28453591	      1.04436891	      0.29325815	     22.09486048	     -1.04297260	     -5.98604898	    -49.93208574	      1.85673366	     -9.77750267	      2.92212110	     -0.77739941	      3.20050269	      5.26366154	     -1.46243649	      2.27576133	    -11.38751895	     -1.29726577	     -5.50346440	      0.41741528	      0.16871978
      1.35416667	     -0.69471781	     -0.91908421	     -1.65019680	      0.28936432	      1.04452699	      0.29314297	     22.24424250	     -0.85035473	     -5.94487007	    -48.50495714	      1.88436500	    -10.17192928	      2.78732767	     -1.14205978	      3.04915907	      5.20716375	     -1.33061826	      2.46516633	    -11.25881894	     -1.32451718	     -5.53800935	      0.62071930	      0.15475892
      1.35833333	     -0.71303718	     -1.07260178	     -1.61624089	      0.29420692	      1.04462382	      0.29297332	     22.38222877	     -0.67722778	     -5.96004947	    -47.02353264	      1.89480574	    -10.51168706	      2.65935078	     -1.49707220	      2.89818524	      5.25487441	     -1.17867189	      2.60840445	    -11.27391601	     -1.34947755	     -5.55074148	      0.82677839	      0.07729390
      1.36250000	     -0.71484378	     -1.20241752	     -1.58733917	      0.29904160	      1.04468804	      0.29284946	     22.48637933	     -0.52101481	     -5.96119702	    -45.50213748	      1.88060051	    -10.87800006	      2.48678333	     -1.87736086	      2.77117265	      5.32030325	     -1.00986629	      2.71715559	    -11.33619004	     -1.38568794	     -5.58968668	      1.00336052	     -0.02252281
      1.36666667	     -0.71279126	     -1.32345664	     -1.54242717	      0.30389413	      1.04472869	      0.29269193	     22.56078006	     -0.38769559	     -5.99894035	    -43.92835107	      1.81759467	    -11.20317085	      2.32795776	     -2.25828872	      2.65421333	      5.38483390	     -0.84893925	      2.83920580	    -11.39546327	     -1.41855885	     -5.61020793	      1.17533295	     -0.11018862
      1.37083333	     -0.74405928	     -1.42421960	     -1.50522887	      0.30874744	      1.04464668	      0.29259256	     22.65924743	     -0.26398597	     -6.01902032	    -42.32624408	      1.74503818	    -11.53889635	      2.13098004	     -2.60961744	      2.55425073	      5.45740884	     -0.67342809	      2.94316248	    -11.46046574	     -1.46248245	     -5.62082508	      1.30770258	     -0.21504506
      1.37500000	     -0.74257863	     -1.50785116	     -1.45664481	      0.31362041	      1.04458333	      0.29247465	     22.69878943	     -0.17136040	     -6.07810421	    -40.67903814	      1.64093995	    -11.82801195	      1.95214880	     -2.99424662	      2.47342099	      5.50706240	     -0.50354590	      3.06787384	    -11.50472749	     -1.50356197	     -5.63870030	      1.42852488	     -0.30572388
      1.37916667	     -0.75203334	     -1.58872691	     -1.40386372	      0.31850849	      1.04446436	      0.29237183	     22.72738885	     -0.07877551	     -6.14510357	    -38.98742054	      1.52000226	    -12.10066277	      1.77495339	     -3.36910156	      2.39241038	      5.55691439	     -0.33059897	      3.19102399	    -11.53680727	     -1.54615714	     -5.65712840	      1.54082860	     -0.40247102
